PathFileType	4	(X/Y/Z)	OpenSim_Sub08_CSBaseline_Accel.trc
DataRate	CameraRate	NumFrames	NumMarkers	Units	OrigDataRate	OrigDataStartFrame	OrigNumFrames
100	100	37	8	m	100	3414	5461
Frame#	Time	torso_imu_offset_imu	pelvis_imu_offset_imu	tibia_r_imu_offset_imu	femur_r_imu_offset_imu	tibia_l_imu_offset_imu	femur_l_imu_offset_imu	toes_r_imu_offset_imu	toes_l_imu_offset_imu
				X1	Y1	Z1	X2	Y2	Z2	X3	Y3	Z3	X4	Y4	Z4	X5	Y5	Z5	X6	Y6	Z6	X7	Y7	Z7	X8		Y8	Z8	

3414	34.13000000	8.18246300	-0.16475100	5.68495700	9.06844200	-1.66468700	3.18786200	5.21133200	3.95768100	2.07716900	8.45078600	-1.11258800	2.39280400	9.87629400	-0.27695600	-1.49023200	9.00657100	2.02158700	-1.09516300	4.58851000	-2.18885600	9.38081300	5.76310600	1.20599800	10.47952400
3415	34.14000000	8.00523400	-0.09116300	5.63143300	8.81699900	-1.13958600	3.14953000	4.84961200	3.51584500	2.40725000	8.06823300	-1.06717400	2.32498100	9.64347800	-0.04319800	-1.35313300	8.73825700	2.10143500	-1.42377000	3.87172700	0.20472900	8.74861600	5.80584800	1.34208400	10.64270300
3416	34.15000000	8.03944200	0.02935100	5.62797200	8.62134600	-0.59509900	3.13965000	4.81756800	3.11980700	3.08643800	7.79734400	-1.30413100	2.31519000	9.47822700	-0.37928800	-0.41929900	8.61805500	2.43303400	-1.70085400	2.30168200	2.86393600	7.87895200	5.27147700	1.15815100	10.81929700
3417	34.16000000	8.09859100	0.05893200	5.65112400	8.48826600	-0.15347900	3.22503200	5.10209700	2.58776000	3.74748000	7.55384800	-1.51682600	2.30313800	9.51624300	-0.49519600	-0.07875400	8.80996200	2.76562000	-1.83291300	1.73543000	4.69559900	7.28256900	5.65548400	0.95300600	10.66716300
3418	34.17000000	8.22117900	0.00890400	5.63201200	8.36906300	0.00950800	3.34502500	5.59863600	2.35418700	4.03577600	7.23263800	-1.88279500	2.27842900	9.95311800	0.05565300	0.03875400	9.17324800	3.30621200	-1.78486600	2.24646900	5.56205000	7.54280300	5.48638800	0.57743700	10.80389000
3419	34.18000000	8.27649200	-0.03385300	5.67188600	8.38992000	-0.22219800	3.45631300	6.64218200	3.69927600	3.07776300	7.04168900	-1.83412200	2.15727200	10.15450700	0.14685600	0.33985700	9.53226600	3.53926700	-1.53734700	3.78363000	4.56103000	9.13224600	6.09518500	0.60977900	10.46343300
3420	34.19000000	8.21444300	-0.06026800	5.63617800	8.43534400	-0.75774600	3.44484800	8.12606900	7.13782300	0.57104200	6.79440000	-1.20978700	2.06821100	9.77066000	0.19246200	0.37377900	9.45169500	3.58826400	-1.07319200	7.45660600	2.53781800	11.81904900	5.50987200	0.69494400	10.97548200
3421	34.20000000	8.13046200	-0.01342400	5.60062400	8.41198700	-1.48373100	3.26861600	9.65939200	11.23278300	-1.46907600	6.57355100	-0.31117400	2.15931100	9.52539300	0.23109900	0.10674400	9.14761100	3.45716500	-0.61984800	10.82264100	0.96896200	13.59836700	5.61700300	0.79605500	10.73851200
3422	34.21000000	8.00410800	-0.00269000	5.57820700	8.34762700	-2.16650300	3.16101400	10.45232600	13.96997200	-1.93376100	6.44477700	0.27899200	2.30774400	9.41475700	0.59204900	-0.11253200	8.86339600	3.06579100	-0.38281400	12.15968800	2.05175100	13.85431300	5.97195200	0.91299400	10.54150400
3423	34.22000000	8.06206400	0.09754500	5.55034800	8.19512800	-2.43863800	3.00131200	9.61382500	12.95744300	-0.45566000	6.58725300	0.29019500	2.51893600	9.41825000	0.40599000	-0.39780600	8.67081500	3.00106300	-0.61516800	13.07200900	4.08022500	13.43250100	5.96303000	1.07410400	10.40516100
3424	34.23000000	8.38563500	0.08207100	5.56294300	8.05883700	-2.11219800	2.89959400	8.35477100	8.68520600	2.06184600	7.03652300	-0.10987400	2.69621700	9.53230200	-0.18105700	-0.46129400	8.66147200	3.19667900	-1.04740300	14.63979400	3.54123800	12.78462900	5.69044000	1.26661500	10.75191900
3425	34.24000000	8.66846800	0.05360000	5.66329500	8.15203700	-1.39132800	2.90159200	8.09510300	3.70973800	2.47721800	7.65060300	-0.67785200	2.74832200	9.79691800	-0.45869100	-0.63235700	8.77574500	3.40445900	-1.34107900	16.21723400	0.83119400	12.09921500	5.45655800	0.97996500	10.77682000
3426	34.25000000	8.78815200	0.05592800	5.63355400	8.35541100	-0.62234000	2.76737700	8.47584700	0.09944000	0.22725400	8.23233700	-1.14058100	2.79709700	9.82163700	-0.41842500	-0.58417800	8.96909900	3.57833300	-1.40843300	16.58049700	-1.82239000	10.96351700	5.82958100	1.18258600	10.65334700
3427	34.26000000	8.94377500	0.07051000	5.66169200	8.65072900	0.03389300	2.67114700	9.70963700	-0.90107500	-2.03360200	8.69327100	-1.50925400	2.96982400	9.80239400	-0.30987800	-0.61315400	8.98466800	3.80960100	-1.40409200	15.70853900	-3.02918600	9.87469900	5.75025700	1.17239900	10.64560400
3428	34.27000000	8.93971000	0.03581600	5.65511700	8.95341400	0.42349700	2.73196000	11.95964800	0.24723100	-1.23154900	9.01426400	-1.95130700	3.13543600	9.70887900	-0.65361900	-0.37132700	8.72109300	4.10320500	-1.33976900	15.81907300	-3.36837700	9.05343800	6.16458300	1.09548600	10.38062000
3429	34.28000000	8.96793200	0.03821800	5.68532700	9.22530500	0.55882700	2.74052500	13.32658900	1.64869100	1.23605800	9.07588200	-2.68639100	3.07703800	9.55438900	-0.87368200	-0.59067500	8.55378700	4.21642600	-1.23817500	16.69307300	-2.97348700	8.16810700	5.46580300	1.10938200	10.90243700
3430	34.29000000	9.02584000	0.13179000	5.68318400	9.39786900	0.41499200	2.69228600	12.60351000	1.71401600	2.20113500	8.90723100	-3.76143100	3.02880500	9.66117800	-0.93061600	-0.40066200	8.60104700	4.24160500	-1.05731900	17.60221100	-2.26472000	7.09853100	5.69226100	1.03305800	10.62147200
3431	34.30000000	9.19644200	0.29262000	5.66142300	9.47012900	0.12452600	2.63619100	11.07836900	0.46293600	2.09273600	8.75303100	-4.69097900	2.98381200	9.69915400	-1.02278900	-0.58935700	8.96086400	4.07317400	-0.95512500	17.78564000	-1.71419200	5.69821500	5.84899700	1.17459600	10.67311200
3432	34.31000000	9.29818500	0.38500300	5.57196400	9.46874500	-0.04233300	2.51314600	9.98377700	-0.62056300	1.67362000	8.69063600	-5.63017600	2.97159800	9.97001100	-1.39115200	-0.72994300	8.90973600	3.76517600	-0.98410600	17.18069600	-0.76686000	4.10146000	6.00014900	1.05170500	10.43495900
3433	34.32000000	9.34952500	0.38424000	5.48950800	9.29750600	-0.32343200	2.33995800	10.02788600	-0.86261100	1.25771900	8.71401900	-6.39569200	2.94400200	9.97523200	-1.68806500	-0.65936800	8.88478100	3.66796800	-1.18103000	16.07773300	1.03398800	2.79626000	5.65797900	1.04757800	10.84697400
3434	34.33000000	9.36646800	0.24350500	5.41165700	9.35227100	-0.50361800	2.25095300	11.47752300	-0.07541000	0.57492800	8.74403400	-6.91115000	2.92359900	9.86203500	-2.06632000	-0.55257000	8.87545800	3.57953100	-1.36550300	15.30335100	3.13759200	1.87419600	5.53230700	1.01425300	10.77739400
3435	34.34000000	9.43215800	0.29657400	5.41771900	9.31039700	-0.64581700	2.09712900	12.48527600	1.59011200	0.15378300	8.83175500	-7.44092100	3.01198500	9.73088800	-1.98573800	-0.59402300	9.09877600	3.69368600	-1.48104500	15.38694900	4.11654800	0.86296400	6.02753700	0.94276500	10.54778600
3436	34.35000000	9.45412600	0.28020300	5.48619800	9.51852700	-0.72265600	2.10150500	11.33531700	3.10354500	0.30425000	9.01612400	-7.86985000	2.94976600	9.90400100	-1.72406100	-0.55570800	8.82528200	3.62187800	-1.57368900	15.89698900	4.47567200	0.00330800	5.96681500	0.68248500	10.61363000
3437	34.36000000	9.51991900	0.27911500	5.56717300	9.79758900	-0.67576900	2.14229500	8.84689900	3.36885400	1.08096200	9.08562600	-8.15790000	3.09535500	9.85210200	-1.44760800	-0.51645700	8.69781500	3.80173500	-1.70116200	16.42599200	4.99454000	-0.68757800	5.99994500	0.82852000	10.60148300
3438	34.37000000	9.59792300	0.23947200	5.52329300	10.01672100	-0.67440700	2.25275300	7.18284800	2.22872600	1.12383100	8.95360700	-8.00608300	3.21192600	9.76551500	-1.48984100	-0.58657600	8.58881300	4.02308000	-1.74689600	16.47769100	6.92226600	-1.36538700	5.35518400	0.99592600	11.01023700
3439	34.38000000	9.70835200	0.24858800	5.74361500	10.27664700	-0.69306800	2.21615200	7.24000700	0.85617000	0.39376400	8.69635100	-6.91286000	2.90582700	9.66248600	-1.34066900	-0.70497900	8.60367500	4.13217100	-1.67045100	15.63175300	9.79483800	-1.70629800	5.15603000	1.19553400	11.15873800
3440	34.39000000	9.85713200	0.31488200	5.68256100	10.35770400	-0.82968500	2.20913400	8.02863400	0.38046200	-0.51034100	8.77886500	-5.14382200	2.56158300	10.18588500	-0.94813900	-0.81888900	8.82444200	4.11883800	-1.83770400	14.77651200	10.55799700	-1.79485800	5.70853000	0.62014200	10.92519500
3441	34.40000000	9.95721800	0.35772400	5.76273400	10.45137100	-1.06317000	2.12489300	8.22620000	1.32618900	-0.94759300	8.90830000	-3.18519700	2.36018200	10.85813500	-0.78664100	-0.30007900	8.99675400	3.96613400	-2.00467300	14.52891700	7.47657600	-1.81460800	5.81436800	0.77288600	10.92811600
3442	34.41000000	10.07990700	0.37429300	6.02161300	10.52737300	-1.25215100	2.02211400	7.84985100	2.91510700	-1.32007000	8.91524500	-2.15880600	2.30416300	10.55049900	-1.07871400	-0.28770300	8.99576900	3.73375900	-2.10823200	14.61737100	4.63036200	-1.08032400	5.60946400	0.82337600	11.07556000
3443	34.42000000	9.96868600	0.35720600	5.94220200	10.50513300	-1.40416900	1.85810400	7.50594700	4.12681600	-1.55198900	8.67502100	-2.26992800	2.46075100	10.31220100	-1.19915800	-0.39933400	9.07642100	3.77135900	-2.04583800	14.22114500	2.84378200	-0.13888200	5.52067200	0.77305900	10.98146800
3444	34.43000000	9.83367700	0.35697500	5.94098400	10.42250700	-1.42607800	1.61363300	7.36642400	4.59908600	-1.56304300	8.35420400	-2.75753100	2.94687000	10.24375300	-1.05113400	-0.36457800	9.10806600	3.69665600	-1.96082700	13.77906200	2.39262400	1.08772000	5.82905100	0.99982200	10.87872000
3445	34.44000000	9.70106600	0.38577000	5.99881000	10.32166700	-1.42827500	1.40067200	7.54994100	4.43623300	-1.45467100	7.89053300	-3.11812100	3.64310700	10.45387700	-1.08140400	-0.35765400	9.01528700	3.66705400	-1.79112100	-1.98795200	1.53355600	11.52376900	5.88769000	0.99423500	10.68016700
3446	34.45000000	9.76836000	0.29129700	5.93469600	10.25914800	-1.36166300	1.51740400	8.80099000	4.26981900	-0.33203100	7.99776500	-3.33373500	4.69253000	10.43783900	-1.23063000	-0.34384600	8.94593500	3.79512300	-1.63863000	-8.68403200	-10.31320900	19.29179800	5.60354400	1.24722800	11.09451900
3447	34.46000000	10.20386200	0.32013300	6.15917900	10.27644200	-0.95681200	2.09718900	12.89199400	4.52694000	4.53906200	9.86669200	-3.58243600	5.17313500	10.65523200	-1.42783200	-0.35725800	9.06720600	4.13675600	-1.31737800	-1.59257500	-3.40136100	15.32386000	5.28025700	1.04179500	11.29342000
3448	34.47000000	10.97200400	0.24258000	6.36559200	10.35719800	-0.16214900	2.64869900	17.16527100	0.03803900	8.11868700	12.70525900	-3.69829900	4.66315700	11.11049700	-0.86866900	-0.12018400	9.28570700	4.27452800	-0.82559100	-12.51150800	-12.15296700	2.32295400	5.59439700	1.34514900	10.98341600
3449	34.48000000	11.37364000	0.16402700	6.10961900	10.48197800	0.71008100	2.84985100	15.60065500	-9.92577600	5.87583300	13.34124000	-3.16690400	3.90183900	11.42733600	-0.30121900	0.48716100	9.64937900	4.39131500	-0.41825100	4.32226500	-18.09689900	1.83622700	5.24144800	1.63903900	11.24595500
3450	34.49000000	10.61761900	0.16186900	5.81705300	11.20107500	1.18995200	2.73883000	10.20030600	-16.61205800	3.28513400	11.95423700	-2.72106100	4.19188400	11.68740300	-0.15370600	1.07565800	9.92481400	4.55684200	-0.28694500	17.84689200	-3.35966500	14.38452700	5.15249200	1.34970800	11.30212600
